<?xml version="1.0" encoding="utf-8"?>
<!-- Generator: Adobe Illustrator 25.0.0, SVG Export Plug-In . SVG Version: 6.00 Build 0)  -->
<svg version="1.1" id="Layer_1" xmlns="http://www.w3.org/2000/svg" xmlns:xlink="http://www.w3.org/1999/xlink" x="0px" y="0px"
	 viewBox="0 0 566.9 566.9" style="enable-background:new 0 0 566.9 566.9;" xml:space="preserve">
<style type="text/css">
	.st0{display:none;}
	.st1{display:inline;fill:#0A8936;}
	.st2{fill:none;}
	.st3{fill:#0DCAF0;}
	.st4{font-family:'MyriadPro-Regular';}
	.st5{font-size:30.1318px;}
	.st6{clip-path:url(#SVGID_2_);fill:#0DCAF0;}
	.st7{clip-path:url(#SVGID_4_);fill:none;stroke:#FFFFFF;stroke-width:5;stroke-miterlimit:10;}
	.st8{clip-path:url(#SVGID_6_);fill:none;stroke:#FFFFFF;stroke-width:5;stroke-miterlimit:10;}
	.st9{clip-path:url(#SVGID_8_);fill:none;stroke:#FFFFFF;stroke-width:5;stroke-miterlimit:10;}
	.st10{clip-path:url(#SVGID_10_);fill:#FFFFFF;}
	.st11{clip-path:url(#SVGID_12_);fill:#FFFFFF;}
	.st12{clip-path:url(#SVGID_14_);fill:#FFFFFF;}
</style>
<g id="Layer_4" class="st0">
	<rect class="st1" width="566.9" height="566.9"/>
</g>
<g id="Layer_6">
	<g id="Layer_3">
	</g>
	<g>
		<rect x="304.3" y="162.2" class="st2" width="236.3" height="242.5"/>
		<text transform="matrix(1 0 0 1 304.2722 187.4347)" class="st3 st4 st5">110101001010101</text>
		<text transform="matrix(1 0 0 1 304.2722 222.4347)" class="st3 st4 st5">101010101010110</text>
		<text transform="matrix(1 0 0 1 304.2722 257.4347)" class="st3 st4 st5">010100101010101</text>
		<text transform="matrix(1 0 0 1 304.2722 292.4347)" class="st3 st4 st5">001010110100101</text>
		<text transform="matrix(1 0 0 1 304.2722 327.4347)" class="st3 st4 st5">001010001001010</text>
		<text transform="matrix(1 0 0 1 304.2722 362.4347)" class="st3 st4 st5">101101010110010</text>
		<text transform="matrix(1 0 0 1 304.2722 397.4347)" class="st3 st4 st5">101011010101001</text>
		<g>
			<defs>
				<polygon id="SVGID_1_" points="380.9,367.2 380.9,333.3 368.9,333.3 368.9,299.5 348.2,299.5 348.2,265.6 337.4,265.6 
					337.4,231.7 317.7,231.7 317.7,197.8 307.4,197.8 307.4,163.9 26.4,163.9 26.4,197.8 26.4,231.7 26.4,265.6 26.4,299.5 
					26.4,333.3 26.4,367.2 26.4,401.1 398.1,401.1 398.1,367.2 				"/>
			</defs>
			<use xlink:href="#SVGID_1_"  style="overflow:visible;fill:#0DCAF0;"/>
			<clipPath id="SVGID_2_">
				<use xlink:href="#SVGID_1_"  style="overflow:visible;"/>
			</clipPath>
			<rect x="26.4" y="163.9" class="st6" width="471.6" height="237.2"/>
		</g>
		<g>
			<defs>
				<polygon id="SVGID_3_" points="380.9,367.2 380.9,333.3 368.9,333.3 368.9,299.5 348.2,299.5 348.2,265.6 337.4,265.6 
					337.4,231.7 317.7,231.7 317.7,197.8 307.4,197.8 307.4,163.9 26.4,163.9 26.4,197.8 26.4,231.7 26.4,265.6 26.4,299.5 
					26.4,333.3 26.4,367.2 26.4,401.1 398.1,401.1 398.1,367.2 				"/>
			</defs>
			<clipPath id="SVGID_4_">
				<use xlink:href="#SVGID_3_"  style="overflow:visible;"/>
			</clipPath>
			<rect x="45.8" y="178.2" class="st7" width="70.7" height="70.7"/>
		</g>
		<g>
			<defs>
				<polygon id="SVGID_5_" points="380.9,367.2 380.9,333.3 368.9,333.3 368.9,299.5 348.2,299.5 348.2,265.6 337.4,265.6 
					337.4,231.7 317.7,231.7 317.7,197.8 307.4,197.8 307.4,163.9 26.4,163.9 26.4,197.8 26.4,231.7 26.4,265.6 26.4,299.5 
					26.4,333.3 26.4,367.2 26.4,401.1 398.1,401.1 398.1,367.2 				"/>
			</defs>
			<clipPath id="SVGID_6_">
				<use xlink:href="#SVGID_5_"  style="overflow:visible;"/>
			</clipPath>
			<rect x="154.4" y="178.2" class="st8" width="70.7" height="70.7"/>
		</g>
		<g>
			<defs>
				<polygon id="SVGID_7_" points="380.9,367.2 380.9,333.3 368.9,333.3 368.9,299.5 348.2,299.5 348.2,265.6 337.4,265.6 
					337.4,231.7 317.7,231.7 317.7,197.8 307.4,197.8 307.4,163.9 26.4,163.9 26.4,197.8 26.4,231.7 26.4,265.6 26.4,299.5 
					26.4,333.3 26.4,367.2 26.4,401.1 398.1,401.1 398.1,367.2 				"/>
			</defs>
			<clipPath id="SVGID_8_">
				<use xlink:href="#SVGID_7_"  style="overflow:visible;"/>
			</clipPath>
			<rect x="263" y="178.2" class="st9" width="70.7" height="70.7"/>
		</g>
		<g>
			<defs>
				<polygon id="SVGID_9_" points="380.9,367.2 380.9,333.3 368.9,333.3 368.9,299.5 348.2,299.5 348.2,265.6 337.4,265.6 
					337.4,231.7 317.7,231.7 317.7,197.8 307.4,197.8 307.4,163.9 26.4,163.9 26.4,197.8 26.4,231.7 26.4,265.6 26.4,299.5 
					26.4,333.3 26.4,367.2 26.4,401.1 398.1,401.1 398.1,367.2 				"/>
			</defs>
			<clipPath id="SVGID_10_">
				<use xlink:href="#SVGID_9_"  style="overflow:visible;"/>
			</clipPath>
			<rect x="76.9" y="270.6" class="st10" width="8.5" height="123"/>
		</g>
		<g>
			<defs>
				<polygon id="SVGID_11_" points="380.9,367.2 380.9,333.3 368.9,333.3 368.9,299.5 348.2,299.5 348.2,265.6 337.4,265.6 
					337.4,231.7 317.7,231.7 317.7,197.8 307.4,197.8 307.4,163.9 26.4,163.9 26.4,197.8 26.4,231.7 26.4,265.6 26.4,299.5 
					26.4,333.3 26.4,367.2 26.4,401.1 398.1,401.1 398.1,367.2 				"/>
			</defs>
			<clipPath id="SVGID_12_">
				<use xlink:href="#SVGID_11_"  style="overflow:visible;"/>
			</clipPath>
			<rect x="185.5" y="270.6" class="st11" width="8.5" height="123"/>
		</g>
		<g>
			<defs>
				<polygon id="SVGID_13_" points="380.9,367.2 380.9,333.3 368.9,333.3 368.9,299.5 348.2,299.5 348.2,265.6 337.4,265.6 
					337.4,231.7 317.7,231.7 317.7,197.8 307.4,197.8 307.4,163.9 26.4,163.9 26.4,197.8 26.4,231.7 26.4,265.6 26.4,299.5 
					26.4,333.3 26.4,367.2 26.4,401.1 398.1,401.1 398.1,367.2 				"/>
			</defs>
			<clipPath id="SVGID_14_">
				<use xlink:href="#SVGID_13_"  style="overflow:visible;"/>
			</clipPath>
			<rect x="294.1" y="270.6" class="st12" width="8.5" height="123"/>
		</g>
	</g>
</g>
</svg>
